<svg width="108" height="49" viewBox="0 0 108 49" fill="none" xmlns="http://www.w3.org/2000/svg">
<path d="M91.3611 14.9313H87.4703V34.3852H91.3611V14.9313Z" fill="#161E3A"/>
<path d="M47.1758 34.3859H43.285V20.9871L41.3397 22.0813V18.1906L47.1758 14.932V34.3859Z" fill="#161E3A"/>
<path d="M84.99 19.7948H81.0992V34.3852H84.99V19.7948Z" fill="#161E3A"/>
<path d="M74.7515 19.7948V27.9411C74.7515 29.4245 73.56 30.616 72.0766 30.616C70.5932 30.616 69.4017 29.4245 69.4017 27.9411V19.7948H65.5109V27.9411C65.5109 31.5644 67.7238 34.5068 71.3471 34.5068C72.8304 34.5068 74.0706 33.7529 74.7515 32.4398V34.3852H78.6423V19.7948H74.7515Z" fill="#161E3A"/>
<path d="M83.046 19.1869C84.2547 19.1869 85.2345 18.2071 85.2345 16.9984C85.2345 15.7897 84.2547 14.8098 83.046 14.8098C81.8373 14.8098 80.8574 15.7897 80.8574 16.9984C80.8574 18.2071 81.8373 19.1869 83.046 19.1869Z" fill="#161E3A"/>
<path d="M103.372 14.9313V21.9104C102.229 20.6702 100.697 19.9164 99.0195 19.9164C95.5178 19.9164 92.697 23.1749 92.697 27.2116C92.697 31.2482 95.5178 34.5068 99.0195 34.5068C100.697 34.5068 102.229 33.7529 103.372 32.5127V34.4095H107.263V14.9313H103.372ZM102.4 30.1296C101.743 30.8835 100.965 31.2482 100.041 31.2482C99.1167 31.2482 98.3143 30.8835 97.6091 30.1296C96.9282 29.3758 96.5634 28.4274 96.5634 27.2602C96.5634 26.093 96.9039 25.1203 97.5847 24.3421C98.2656 23.564 99.0681 23.1506 100.016 23.1506C100.965 23.1506 101.743 23.5396 102.4 24.3178C103.056 25.0959 103.372 26.0686 103.372 27.2359C103.372 28.4031 103.056 29.3758 102.4 30.1296Z" fill="#161E3A"/>
<path d="M49.6084 14.9313V34.3852H53.4992V32.4884C54.6421 33.7286 56.1741 34.4825 57.852 34.4825C61.3537 34.4825 64.1745 31.2239 64.1745 27.1873C64.1745 23.1506 61.3537 19.8921 57.852 19.8921C56.1741 19.8921 54.6421 20.6459 53.4992 21.8861V14.9313H49.6084ZM53.4992 27.2359C53.4992 26.0687 53.8153 25.096 54.4719 24.3178C55.1284 23.5397 55.9066 23.1506 56.855 23.1506C57.8033 23.1506 58.6058 23.5397 59.2867 24.3421C59.9676 25.1203 60.308 26.1173 60.308 27.2602C60.308 28.4274 59.9676 29.3758 59.2624 30.1297C58.5815 30.8835 57.7547 31.2483 56.8306 31.2483C55.9066 31.2483 55.1284 30.8835 54.4719 30.1297C53.8153 29.3758 53.4992 28.4274 53.4992 27.2359Z" fill="#161E3A"/>
<path d="M28.7431 19.3329C27.892 17.4847 25.9223 16.3418 23.8796 16.5364C22.7367 14.0803 19.6241 12.8645 17.0221 14.3721L14.5904 15.7825V0.341034L0 8.75483V16.05L2.91808 14.3721V40.1971C2.91808 41.9237 3.84214 43.5286 5.34981 44.404L12.1587 48.3434C12.9125 48.7811 13.7393 49 14.5904 49C15.4415 49 16.2683 48.7811 17.0221 48.3434L31.6125 39.9053C33.1202 39.0299 34.0443 37.425 34.0443 35.6984V24.172C34.0443 21.181 31.4423 19.0897 28.7431 19.3329ZM24.3173 18.9438C25.1684 18.9438 25.9952 19.4058 26.4329 20.1597C26.0195 20.4028 25.2657 20.8405 24.3173 21.3755V18.9438ZM14.5904 18.579L18.238 16.4634C19.4782 15.7582 20.9129 16.2446 21.5695 17.3632L14.5904 21.3755V18.579ZM14.5904 24.1963L21.8856 19.9894V22.7859C18.5298 24.7313 14.6877 26.9685 14.5904 27.0415V24.1963ZM14.5904 31.1997C14.5904 30.3243 15.0524 29.5218 15.8063 29.0841L21.8856 25.5824V30.0811C21.8856 30.9565 21.4236 31.759 20.6697 32.1967L14.5904 35.6984V31.1997ZM14.5904 38.4949L21.8856 34.288C23.3933 33.4126 24.3173 31.8077 24.3173 30.0811V24.172L26.7491 22.7616V32.8776C26.7491 33.753 26.287 34.5555 25.5332 34.9932L14.5904 41.3157V38.4949ZM31.6125 35.6741C31.6125 36.5495 31.1505 37.352 30.3967 37.7897L16.779 45.6442C15.8063 46.2035 14.5904 45.4983 14.5904 44.3797V44.1122L26.7491 37.0845C28.2567 36.2091 29.1808 34.6041 29.1808 32.8776V21.7403C30.4453 21.7403 31.6125 22.7616 31.6125 24.172V35.6741Z" fill="#E08568"/>
</svg>
