<svg width="435" height="460" viewBox="0 0 435 460" fill="none" xmlns="http://www.w3.org/2000/svg">
<g opacity="0.12">
<mask id="mask0" mask-type="alpha" maskUnits="userSpaceOnUse" x="0" y="0" width="781" height="460">
<path d="M780.219 0L0 0L0 460H780.219V0Z" fill="#F8F9FB"/>
</mask>
<g mask="url(#mask0)">
<path d="M335.061 242.696L275.089 207.882V138.74L335.061 173.599" stroke="#5969A1" stroke-miterlimit="10" stroke-linejoin="round"/>
<path d="M395.034 207.882L335.061 242.608V173.51L395.034 138.74V207.882Z" stroke="#5969A1" stroke-miterlimit="10" stroke-linejoin="round"/>
<path d="M275.089 138.74L335.061 104.015L395.034 138.74" stroke="#5969A1" stroke-miterlimit="10" stroke-linejoin="round"/>
<path d="M214.983 519.749L155.01 484.934V415.793L214.983 450.652" stroke="#5969A1" stroke-miterlimit="10" stroke-linejoin="round"/>
<path d="M274.956 484.934L214.983 519.704V450.563L274.956 415.793V484.934Z" stroke="#5969A1" stroke-miterlimit="10" stroke-linejoin="round"/>
<path d="M155.01 415.794L214.983 381.068L274.956 415.794" stroke="#5969A1" stroke-miterlimit="10" stroke-linejoin="round"/>
<path d="M455.096 312.543L395.123 277.729V208.587L455.096 243.402" stroke="#5969A1" stroke-miterlimit="10" stroke-linejoin="round"/>
<path d="M395.124 208.589L455.096 173.863L515.069 208.589" stroke="#5969A1" stroke-miterlimit="10" stroke-linejoin="round"/>
<path d="M394.857 416.368L454.962 451.227" stroke="#5969A1" stroke-miterlimit="10" stroke-linejoin="round"/>
<path d="M394.858 416.369L454.963 381.643L515.6 416.369" stroke="#5969A1" stroke-miterlimit="10" stroke-linejoin="round"/>
<path d="M94.063 450.873L34.0903 416.059V346.917L94.063 381.776" stroke="#5969A1" stroke-miterlimit="10" stroke-linejoin="round"/>
<path d="M154.036 416.059L94.0631 450.829V381.732L154.036 346.917" stroke="#5969A1" stroke-miterlimit="10" stroke-linejoin="round"/>
<path d="M34.0903 346.919L94.063 312.193L154.036 346.919" stroke="#5969A1" stroke-miterlimit="10" stroke-linejoin="round"/>
<path d="M274.779 416.368L334.751 451.227" stroke="#5969A1" stroke-miterlimit="10" stroke-linejoin="round"/>
<path d="M394.857 416.367L334.751 451.181V520.278L394.857 485.508V415.835" stroke="#5969A1" stroke-miterlimit="10" stroke-linejoin="round"/>
<path d="M274.779 416.369L334.752 381.643L394.857 416.369" stroke="#5969A1" stroke-miterlimit="10" stroke-linejoin="round"/>
<path d="M274.779 346.254L334.751 381.068" stroke="#5969A1" stroke-miterlimit="10" stroke-linejoin="round"/>
<path d="M334.751 381.024L394.857 346.254V415.395" stroke="#5969A1" stroke-miterlimit="10" stroke-linejoin="round"/>
<path d="M334.751 311.529L394.857 346.255" stroke="#5969A1" stroke-miterlimit="10" stroke-linejoin="round"/>
<path d="M394.857 347.094L454.963 381.953" stroke="#5969A1" stroke-miterlimit="10" stroke-linejoin="round"/>
<path d="M394.857 346.74L455.051 311.926" stroke="#5969A1" stroke-miterlimit="10" stroke-linejoin="round"/>
<path d="M275.044 346.606L215.071 311.792V242.606L275.044 277.465" stroke="#5969A1" stroke-miterlimit="10" stroke-linejoin="round"/>
<path d="M335.017 311.792L275.044 346.518V277.421L335.017 242.606V311.792Z" stroke="#5969A1" stroke-miterlimit="10" stroke-linejoin="round"/>
<path d="M215.071 242.608L275.044 207.927L335.017 242.608" stroke="#5969A1" stroke-miterlimit="10" stroke-linejoin="round"/>
<path d="M214.407 450.474L154.435 415.704V346.519L214.407 381.377" stroke="#5969A1" stroke-miterlimit="10" stroke-linejoin="round"/>
<path d="M154.435 346.52L214.407 311.794" stroke="#5969A1" stroke-miterlimit="10" stroke-linejoin="round"/>
<path d="M215.071 381.156L275.044 346.43" stroke="#5969A1" stroke-miterlimit="10" stroke-linejoin="round"/>
<path d="M395.034 208.591V277.732L335.061 312.458V243.361" stroke="#5969A1" stroke-miterlimit="10" stroke-linejoin="round"/>
<path d="M394.813 281.498C396.843 281.498 398.489 279.852 398.489 277.821C398.489 275.791 396.843 274.145 394.813 274.145C392.782 274.145 391.136 275.791 391.136 277.821C391.136 279.852 392.782 281.498 394.813 281.498Z" fill="#5969A1"/>
<path d="M335.637 314.984C337.667 314.984 339.313 313.338 339.313 311.307C339.313 309.277 337.667 307.631 335.637 307.631C333.607 307.631 331.961 309.277 331.961 311.307C331.961 313.338 333.607 314.984 335.637 314.984Z" fill="#5969A1"/>
<path d="M215.293 315.913C217.323 315.913 218.969 314.267 218.969 312.237C218.969 310.206 217.323 308.56 215.293 308.56C213.263 308.56 211.617 310.206 211.617 312.237C211.617 314.267 213.263 315.913 215.293 315.913Z" fill="#5969A1"/>
<path d="M335.062 176.567C337.092 176.567 338.738 174.921 338.738 172.891C338.738 170.86 337.092 169.214 335.062 169.214C333.031 169.214 331.385 170.86 331.385 172.891C331.385 174.921 333.031 176.567 335.062 176.567Z" fill="#5969A1"/>
<path d="M276.196 142.947C278.227 142.947 279.873 141.301 279.873 139.271C279.873 137.241 278.227 135.595 276.196 135.595C274.166 135.595 272.52 137.241 272.52 139.271C272.52 141.301 274.166 142.947 276.196 142.947Z" fill="#5969A1"/>
<path d="M216.135 246.859C218.165 246.859 219.811 245.213 219.811 243.183C219.811 241.153 218.165 239.507 216.135 239.507C214.104 239.507 212.458 241.153 212.458 243.183C212.458 245.213 214.104 246.859 216.135 246.859Z" fill="#5969A1"/>
<path d="M214.407 384.788C216.437 384.788 218.083 383.142 218.083 381.111C218.083 379.081 216.437 377.435 214.407 377.435C212.377 377.435 210.731 379.081 210.731 381.111C210.731 383.142 212.377 384.788 214.407 384.788Z" fill="#5969A1"/>
<path d="M94.3731 316.133C96.4035 316.133 98.0494 314.487 98.0494 312.457C98.0494 310.427 96.4035 308.781 94.3731 308.781C92.3428 308.781 90.6968 310.427 90.6968 312.457C90.6968 314.487 92.3428 316.133 94.3731 316.133Z" fill="#5969A1"/>
<path d="M34.8876 419.426C36.9179 419.426 38.5639 417.78 38.5639 415.75C38.5639 413.719 36.9179 412.073 34.8876 412.073C32.8572 412.073 31.2112 413.719 31.2112 415.75C31.2112 417.78 32.8572 419.426 34.8876 419.426Z" fill="#5969A1"/>
<path d="M395.078 420.001C397.109 420.001 398.755 418.355 398.755 416.325C398.755 414.294 397.109 412.648 395.078 412.648C393.048 412.648 391.402 414.294 391.402 416.325C391.402 418.355 393.048 420.001 395.078 420.001Z" fill="#5969A1"/>
</g>
</g>
</svg>
